<?xml version="1.0" standalone="yes"?>
<!DOCTYPE svg PUBLIC "-//W3C//DTD SVG 1.1//EN"
 "http://www.w3.org/Graphics/SVG/1.1/DTD/svg11.dtd">
<svg xmlns="http://www.w3.org/2000/svg" version="1.1"
  width="100%" height="100%" viewBox="0 0 1024 768"
  style="fill: none; font-family: Helvetica;
 font: Helvetica;
">

<!-- Creator: NGspice -->

<rect x="0" y="0" width="1024" height="768" fill="white" stroke="none"/>
<text stroke="none" fill="black" font-size="16" x="358" y="752">
time
</text>
<text transform="rotate(-90, 20, 389)"  stroke="none" fill="black" font-size="16" x="20" y="389">
V
</text>
<text stroke="none" fill="black" font-size="16" x="10" y="16">
tran1: Turn on time
</text>
<path stroke="black" d="M75 704l0 -637"/>
<text stroke="none" fill="black" font-size="16" x="60" y="728">
0.0
</text>
<path stroke="black" stroke-dasharray="1,2" d="M254 704l0 -637"/>
<text stroke="none" fill="black" font-size="16" x="239" y="728">
5.0
</text>
<path stroke="black" stroke-dasharray="1,2" d="M433 704l0 -637"/>
<text stroke="none" fill="black" font-size="16" x="413" y="728">
10.0
</text>
<path stroke="black" stroke-dasharray="1,2" d="M612 704l0 -637"/>
<text stroke="none" fill="black" font-size="16" x="592" y="728">
15.0
</text>
<path stroke="black" stroke-dasharray="1,2" d="M791 704l0 -637"/>
<text stroke="none" fill="black" font-size="16" x="771" y="728">
20.0
</text>
<path stroke="black" stroke-dasharray="1,2" d="M970 704l0 -637"/>
<text stroke="none" fill="black" font-size="16" x="950" y="728">
25.0
</text>
<text stroke="none" fill="black" font-size="16" x="614" y="752">
us
</text>
<path stroke="black" d="M75 704l895 0"/>
<text stroke="none" fill="black" font-size="16" x="43" y="712">
0.0
</text>
<path stroke="black" stroke-dasharray="1,2" d="M75 613l895 0"/>
<text stroke="none" fill="black" font-size="16" x="43" y="621">
0.5
</text>
<path stroke="black" stroke-dasharray="1,2" d="M75 522l895 0"/>
<text stroke="none" fill="black" font-size="16" x="43" y="530">
1.0
</text>
<path stroke="black" stroke-dasharray="1,2" d="M75 431l895 0"/>
<text stroke="none" fill="black" font-size="16" x="43" y="439">
1.5
</text>
<path stroke="black" stroke-dasharray="1,2" d="M75 340l895 0"/>
<text stroke="none" fill="black" font-size="16" x="43" y="348">
2.0
</text>
<path stroke="black" stroke-dasharray="1,2" d="M75 249l895 0"/>
<text stroke="none" fill="black" font-size="16" x="43" y="257">
2.5
</text>
<path stroke="black" stroke-dasharray="1,2" d="M75 158l895 0"/>
<text stroke="none" fill="black" font-size="16" x="43" y="166">
3.0
</text>
<path stroke="black" stroke-dasharray="1,2" d="M75 67l895 0"/>
<text stroke="none" fill="black" font-size="16" x="43" y="75">
3.5
</text>
<text stroke="none" fill="black" font-size="16" x="10" y="32">
V
</text>
<path stroke="red" d="M447 23l44 0"/>
<text stroke="none" fill="black" font-size="16" x="501" y="32">
v_out
</text>
<path stroke="red" d="M75 697l0 -2 1 0 0 -1 40 0M116 695l0 -1M116 695l3 0 1 -1 0 -3 1 -1 0 -6 1 -1 0 -4 1 -1 0 -5 1 -1 0 -6 1 -1 0 -4 1 -1 0 -5 1 -1 0 -4 1 -1 0 -6 1 -1 0 -4 1 -1 0 -5 1 -1 0 -5 1 -1 0 -5 1 -1 0 -5 1 -1 0 -4 1 -1 0 -5 1 -1 0 -6"/>
<path stroke="red" d="M136 596l1 -1 0 -4 1 -1 0 -5 1 -1 0 -4 1 -1 0 -6 1 -1 0 -5 1 -1 0 -4 1 -1 0 -5 1 -2 0 -4 1 -1 0 -5 1 -1 0 -4 1 -1 0 -5 1 -2 0 -5 1 -1 0 -4 1 -1 0 -5 1 -1 0 -4 1 -1 0 -6 1 -1 0 -5 1 -1 0 -4 1 -1 0 -5 1 -1 0 -5 1 -1 0 -5 1 -1"/>
<path stroke="red" d="M158 473l0 -4 1 -1 0 -5 1 -1 0 -5 1 -1 0 -5 1 -1 0 -5 1 -1 0 -4 1 -1 0 -5 1 -1 0 -5 1 -1 0 -4 1 -1 0 -5 1 -1 0 -3 1 -1 0 -3 1 -1 0 -2 1 -1 0 -1 1 0 0 -1 2 0 0 -1 796 0"/>
<path stroke="blue" d="M75 23l44 0"/>
<text stroke="none" fill="black" font-size="16" x="129" y="32">
v_ena
</text>
<path stroke="blue" d="M75 704l36 0 0 -105 1 -30 0 -120 1 -30 0 -139 1 -30 0 -147 856 0"/>
</svg>
